<svg width="64" height="64" viewBox="0 0 64 64" fill="none" xmlns="http://www.w3.org/2000/svg">
  <rect width="64" height="64" rx="18" fill="url(#bg)" />
  <path
    d="M32 47C31.4 47 30.8 46.8 30.3 46.4C21.4 40 16 34.6 16 27.6C16 22.1 20.2 18 25.5 18C28.4 18 31.1 19.3 32.8 21.5C34.5 19.3 37.2 18 40.1 18C45.4 18 49.6 22.1 49.6 27.6C49.6 34.6 44.2 40 35.3 46.4C34.8 46.8 34.2 47 33.6 47H32Z"
    fill="white"
    fill-opacity="0.96"
  />
  <path d="M29 24H35V29H40V35H35V40H29V35H24V29H29V24Z" fill="#3BA7E6" />
  <defs>
    <linearGradient id="bg" x1="8" y1="8" x2="56" y2="56" gradientUnits="userSpaceOnUse">
      <stop stop-color="#57D1C9" />
      <stop offset="1" stop-color="#3BA7E6" />
    </linearGradient>
  </defs>
</svg>
